<svg width="28" height="23" viewBox="0 0 28 23" fill="none" xmlns="http://www.w3.org/2000/svg">
<g id="logo">
<g id="Vector">
<path fill-rule="evenodd" clip-rule="evenodd" d="M12.7749 18.9933C12.7208 19.1951 12.8729 19.3933 13.0818 19.3933H14.9119C15.1208 19.3933 15.2729 19.1951 15.2188 18.9933L14.3038 15.5783C14.2196 15.2643 13.774 15.2643 13.6899 15.5783L12.7749 18.9933Z" fill="white"/>
<path fill-rule="evenodd" clip-rule="evenodd" d="M10.9526 21.1791C10.8124 21.7021 10.3385 22.0658 9.79701 22.0658H7.31993C6.53331 22.0658 5.96076 21.3196 6.16436 20.5598L11.246 1.59497C11.3992 1.02292 11.9176 0.625138 12.5099 0.625138H15.4579C16.0501 0.625138 16.5685 1.02292 16.7218 1.59497L21.8034 20.5598C22.007 21.3196 21.4345 22.0658 20.6479 22.0658H18.1708C17.6293 22.0658 17.1553 21.7021 17.0152 21.1791L14.5436 11.955C14.3902 11.3824 13.5776 11.3824 13.4242 11.955L10.9526 21.1791Z" fill="white"/>
<path fill-rule="evenodd" clip-rule="evenodd" d="M23.4125 17.6053C23.2541 18.1965 22.4153 18.1965 22.2569 17.6053L20.4121 10.7203C20.3764 10.5871 20.3764 10.447 20.4121 10.3139L22.7632 1.53941C22.9077 1.00005 23.3965 0.625 23.9549 0.625H26.3546C27.1658 0.625 27.7562 1.39447 27.5463 2.17804L23.4125 17.6053ZM7.58394 10.7088C7.61961 10.5756 7.61961 10.4355 7.58394 10.3024L5.23592 1.53941C5.0914 1.00005 4.60262 0.625 4.04423 0.625H1.64456C0.833352 0.625 0.242917 1.39447 0.452873 2.17804L4.58352 17.5938C4.74192 18.185 5.5807 18.185 5.7391 17.5938L7.58394 10.7088Z" fill="white"/>
</g>
</g>
</svg>
