<svg width="204" height="21" viewBox="0 0 204 21" fill="none" xmlns="http://www.w3.org/2000/svg">
<path d="M14.2397 7.95455C14.1886 7.52273 13.9812 7.1875 13.6175 6.94886C13.2539 6.71023 12.8079 6.59091 12.2795 6.59091C11.8931 6.59091 11.555 6.65341 11.2653 6.77841C10.9783 6.90341 10.7539 7.07528 10.592 7.29403C10.4329 7.51278 10.3533 7.76136 10.3533 8.03977C10.3533 8.27273 10.4087 8.47301 10.5195 8.64062C10.6332 8.8054 10.7781 8.94318 10.9542 9.05398C11.1303 9.16193 11.315 9.25142 11.5082 9.32244C11.7013 9.39062 11.8789 9.44602 12.0408 9.48864L12.9272 9.72727C13.1545 9.78693 13.4073 9.86932 13.6857 9.97443C13.967 10.0795 14.2354 10.223 14.4911 10.4048C14.7496 10.5838 14.9627 10.8139 15.1303 11.0952C15.2979 11.3764 15.3817 11.7216 15.3817 12.1307C15.3817 12.6023 15.2582 13.0284 15.011 13.4091C14.7667 13.7898 14.4087 14.0923 13.9371 14.3168C13.4684 14.5412 12.8988 14.6534 12.2283 14.6534C11.6033 14.6534 11.0621 14.5526 10.6048 14.3509C10.1502 14.1491 9.79226 13.8679 9.53089 13.5071C9.27237 13.1463 9.12607 12.7273 9.09197 12.25H10.1829C10.2113 12.5795 10.3221 12.8523 10.5153 13.0682C10.7113 13.2812 10.9585 13.4403 11.2567 13.5455C11.5579 13.6477 11.8817 13.6989 12.2283 13.6989C12.6317 13.6989 12.994 13.6335 13.315 13.5028C13.636 13.3693 13.8903 13.1847 14.0778 12.9489C14.2653 12.7102 14.359 12.4318 14.359 12.1136C14.359 11.8239 14.2781 11.5881 14.1161 11.4062C13.9542 11.2244 13.7411 11.0767 13.4769 10.9631C13.2127 10.8494 12.9272 10.75 12.6204 10.6648L11.5465 10.358C10.8647 10.1619 10.3249 9.8821 9.9272 9.51847C9.52947 9.15483 9.33061 8.67898 9.33061 8.09091C9.33061 7.60227 9.46271 7.17614 9.72692 6.8125C9.99396 6.44602 10.3519 6.16193 10.8008 5.96023C11.2525 5.75568 11.7567 5.65341 12.3136 5.65341C12.8761 5.65341 13.3761 5.75426 13.8136 5.95597C14.2511 6.15483 14.5977 6.42756 14.8533 6.77415C15.1119 7.12074 15.2482 7.5142 15.2624 7.95455H14.2397ZM19.7273 14.6364C19.0966 14.6364 18.5526 14.4972 18.0952 14.2188C17.6406 13.9375 17.2898 13.5455 17.0426 13.0426C16.7983 12.5369 16.6761 11.9489 16.6761 11.2784C16.6761 10.608 16.7983 10.017 17.0426 9.50568C17.2898 8.99148 17.6335 8.59091 18.0739 8.30398C18.517 8.0142 19.0341 7.86932 19.625 7.86932C19.9659 7.86932 20.3026 7.92614 20.6349 8.03977C20.9673 8.15341 21.2699 8.33807 21.5426 8.59375C21.8153 8.84659 22.0327 9.18182 22.1946 9.59943C22.3565 10.017 22.4375 10.5312 22.4375 11.142V11.5682H17.392V10.6989H21.4148C21.4148 10.3295 21.3409 10 21.1932 9.71023C21.0483 9.42045 20.8409 9.19176 20.571 9.02415C20.304 8.85653 19.9886 8.77273 19.625 8.77273C19.2244 8.77273 18.8778 8.87216 18.5852 9.07102C18.2955 9.26705 18.0724 9.52273 17.9162 9.83807C17.7599 10.1534 17.6818 10.4915 17.6818 10.8523V11.4318C17.6818 11.9261 17.767 12.3452 17.9375 12.6889C18.1108 13.0298 18.3509 13.2898 18.6577 13.4688C18.9645 13.6449 19.321 13.733 19.7273 13.733C19.9915 13.733 20.2301 13.696 20.4432 13.6222C20.6591 13.5455 20.8452 13.4318 21.0014 13.2812C21.1577 13.1278 21.2784 12.9375 21.3636 12.7102L22.3352 12.983C22.233 13.3125 22.0611 13.6023 21.8196 13.8523C21.5781 14.0994 21.2798 14.2926 20.9247 14.4318C20.5696 14.5682 20.1705 14.6364 19.7273 14.6364ZM24.973 5.77273V14.5H23.9673V5.77273H24.973ZM29.7298 7.95455V8.80682H26.2013V7.95455H29.7298ZM27.2582 14.5V7.05114C27.2582 6.67614 27.3462 6.36364 27.5224 6.11364C27.6985 5.86364 27.9272 5.67614 28.2085 5.55114C28.4897 5.42614 28.7866 5.36364 29.0991 5.36364C29.3462 5.36364 29.5479 5.38352 29.7042 5.4233C29.8604 5.46307 29.9769 5.5 30.0536 5.53409L29.7638 6.40341C29.7127 6.38636 29.6417 6.36506 29.5508 6.33949C29.4627 6.31392 29.3462 6.30114 29.2013 6.30114C28.869 6.30114 28.6289 6.38494 28.4812 6.55256C28.3363 6.72017 28.2638 6.96591 28.2638 7.28977V14.5H27.2582ZM34.5494 10.2898V11.2273H30.7312V10.2898H34.5494ZM38.978 14.6364C38.3643 14.6364 37.8359 14.4915 37.3928 14.2017C36.9496 13.9119 36.6087 13.5128 36.37 13.0043C36.1314 12.4957 36.0121 11.9148 36.0121 11.2614C36.0121 10.5966 36.1342 10.0099 36.3786 9.50142C36.6257 8.99006 36.9695 8.59091 37.4098 8.30398C37.853 8.0142 38.37 7.86932 38.9609 7.86932C39.4212 7.86932 39.8359 7.95455 40.2053 8.125C40.5746 8.29545 40.8771 8.53409 41.1129 8.84091C41.3487 9.14773 41.495 9.50568 41.5518 9.91477H40.5462C40.4695 9.61648 40.299 9.35227 40.0348 9.12216C39.7734 8.8892 39.4212 8.77273 38.978 8.77273C38.5859 8.77273 38.2422 8.875 37.9467 9.07955C37.6541 9.28125 37.4254 9.56676 37.2607 9.93608C37.0987 10.3026 37.0178 10.733 37.0178 11.2273C37.0178 11.733 37.0973 12.1733 37.2564 12.5483C37.4183 12.9233 37.6456 13.2145 37.9382 13.4219C38.2337 13.6293 38.5803 13.733 38.978 13.733C39.2393 13.733 39.4766 13.6875 39.6896 13.5966C39.9027 13.5057 40.0831 13.375 40.2308 13.2045C40.3786 13.0341 40.4837 12.8295 40.5462 12.5909H41.5518C41.495 12.9773 41.3544 13.3253 41.13 13.6349C40.9084 13.9418 40.6143 14.1861 40.2479 14.3679C39.8842 14.5469 39.4609 14.6364 38.978 14.6364ZM47.147 11.8239V7.95455H48.1527V14.5H47.147V13.392H47.0788C46.9254 13.7244 46.6868 14.0071 46.3629 14.2401C46.0391 14.4702 45.63 14.5852 45.1357 14.5852C44.7266 14.5852 44.3629 14.4957 44.0447 14.3168C43.7266 14.1349 43.4766 13.8622 43.2947 13.4986C43.1129 13.1321 43.022 12.6705 43.022 12.1136V7.95455H44.0277V12.0455C44.0277 12.5227 44.1612 12.9034 44.4283 13.1875C44.6982 13.4716 45.0419 13.6136 45.4595 13.6136C45.7095 13.6136 45.9638 13.5497 46.2223 13.4219C46.4837 13.294 46.7024 13.098 46.8786 12.8338C47.0575 12.5696 47.147 12.233 47.147 11.8239ZM54.631 9.42045L53.7276 9.67614C53.6708 9.52557 53.587 9.37926 53.4762 9.23722C53.3683 9.09233 53.2205 8.97301 53.033 8.87926C52.8455 8.78551 52.6055 8.73864 52.3129 8.73864C51.9123 8.73864 51.5785 8.83097 51.3114 9.01562C51.0472 9.19744 50.9151 9.42898 50.9151 9.71023C50.9151 9.96023 51.006 10.1577 51.1879 10.3026C51.3697 10.4474 51.6538 10.5682 52.0401 10.6648L53.0117 10.9034C53.5969 11.0455 54.033 11.2628 54.32 11.5554C54.6069 11.8452 54.7504 12.2187 54.7504 12.6761C54.7504 13.0511 54.6424 13.3864 54.4265 13.6818C54.2134 13.9773 53.9151 14.2102 53.5316 14.3807C53.1481 14.5511 52.7021 14.6364 52.1935 14.6364C51.5259 14.6364 50.9734 14.4915 50.5359 14.2017C50.0984 13.9119 49.8214 13.4886 49.7049 12.9318L50.6594 12.6932C50.7504 13.0455 50.9222 13.3097 51.1751 13.4858C51.4308 13.6619 51.7646 13.75 52.1765 13.75C52.6452 13.75 53.0174 13.6506 53.293 13.4517C53.5714 13.25 53.7106 13.0085 53.7106 12.7273C53.7106 12.5 53.631 12.3097 53.4719 12.1562C53.3129 12 53.0685 11.8835 52.739 11.8068L51.6481 11.5511C51.0487 11.4091 50.6083 11.1889 50.3271 10.8906C50.0487 10.5895 49.9094 10.2131 49.9094 9.76136C49.9094 9.39205 50.0131 9.06534 50.2205 8.78125C50.4308 8.49716 50.7163 8.27415 51.0771 8.11222C51.4407 7.95028 51.8526 7.86932 52.3129 7.86932C52.9606 7.86932 53.4691 8.01136 53.8384 8.29545C54.2106 8.57955 54.4748 8.95455 54.631 9.42045ZM59.1108 7.95455V8.80682H55.7188V7.95455H59.1108ZM56.7074 6.38636H57.7131V12.625C57.7131 12.9091 57.7543 13.1222 57.8366 13.2642C57.9219 13.4034 58.0298 13.4972 58.1605 13.5455C58.294 13.5909 58.4347 13.6136 58.5824 13.6136C58.6932 13.6136 58.7841 13.608 58.8551 13.5966C58.9261 13.5824 58.983 13.571 59.0256 13.5625L59.2301 14.4659C59.1619 14.4915 59.0668 14.517 58.9446 14.5426C58.8224 14.571 58.6676 14.5852 58.4801 14.5852C58.196 14.5852 57.9176 14.5241 57.6449 14.402C57.375 14.2798 57.1506 14.0938 56.9716 13.8438C56.7955 13.5938 56.7074 13.2784 56.7074 12.8977V6.38636ZM63.2124 14.6364C62.6214 14.6364 62.103 14.4957 61.657 14.2145C61.2138 13.9332 60.8672 13.5398 60.6172 13.0341C60.37 12.5284 60.2464 11.9375 60.2464 11.2614C60.2464 10.5795 60.37 9.98437 60.6172 9.47585C60.8672 8.96733 61.2138 8.57244 61.657 8.29119C62.103 8.00994 62.6214 7.86932 63.2124 7.86932C63.8033 7.86932 64.3203 8.00994 64.7635 8.29119C65.2095 8.57244 65.5561 8.96733 65.8033 9.47585C66.0533 9.98437 66.1783 10.5795 66.1783 11.2614C66.1783 11.9375 66.0533 12.5284 65.8033 13.0341C65.5561 13.5398 65.2095 13.9332 64.7635 14.2145C64.3203 14.4957 63.8033 14.6364 63.2124 14.6364ZM63.2124 13.733C63.6612 13.733 64.0305 13.6179 64.3203 13.3878C64.6101 13.1577 64.8246 12.8551 64.9638 12.4801C65.103 12.1051 65.1726 11.6989 65.1726 11.2614C65.1726 10.8239 65.103 10.4162 64.9638 10.0384C64.8246 9.66051 64.6101 9.35511 64.3203 9.12216C64.0305 8.8892 63.6612 8.77273 63.2124 8.77273C62.7635 8.77273 62.3942 8.8892 62.1044 9.12216C61.8146 9.35511 61.6001 9.66051 61.4609 10.0384C61.3217 10.4162 61.2521 10.8239 61.2521 11.2614C61.2521 11.6989 61.3217 12.1051 61.4609 12.4801C61.6001 12.8551 61.8146 13.1577 62.1044 13.3878C62.3942 13.6179 62.7635 13.733 63.2124 13.733ZM70.185 14.6364C69.6396 14.6364 69.158 14.4986 68.7404 14.223C68.3228 13.9446 67.9961 13.5526 67.7603 13.0469C67.5245 12.5384 67.4066 11.9375 67.4066 11.2443C67.4066 10.5568 67.5245 9.96023 67.7603 9.45455C67.9961 8.94886 68.3242 8.55824 68.7447 8.28267C69.1651 8.0071 69.6509 7.86932 70.2021 7.86932C70.6282 7.86932 70.9648 7.94034 71.212 8.08239C71.462 8.22159 71.6523 8.38068 71.783 8.55966C71.9165 8.7358 72.0202 8.88068 72.0941 8.99432H72.1793V5.77273H73.185V14.5H72.2134V13.4943H72.0941C72.0202 13.6136 71.9151 13.7642 71.7788 13.946C71.6424 14.125 71.4478 14.2855 71.195 14.4276C70.9421 14.5668 70.6055 14.6364 70.185 14.6364ZM70.3214 13.733C70.7248 13.733 71.0657 13.6278 71.3441 13.4176C71.6225 13.2045 71.8342 12.9105 71.979 12.5355C72.1239 12.1577 72.1964 11.7216 72.1964 11.2273C72.1964 10.7386 72.1254 10.3111 71.9833 9.9446C71.8413 9.57528 71.631 9.28835 71.3526 9.08381C71.0742 8.87642 70.7305 8.77273 70.3214 8.77273C69.8952 8.77273 69.5401 8.8821 69.256 9.10085C68.9748 9.31676 68.7631 9.6108 68.6211 9.98295C68.4819 10.3523 68.4123 10.767 68.4123 11.2273C68.4123 11.6932 68.4833 12.1165 68.6254 12.4972C68.7702 12.875 68.9833 13.1761 69.2646 13.4006C69.5487 13.6222 69.9009 13.733 70.3214 13.733ZM75.8143 16.9545C75.6438 16.9545 75.4918 16.9403 75.3583 16.9119C75.2248 16.8864 75.1325 16.8608 75.0813 16.8352L75.337 15.9489C75.5813 16.0114 75.7972 16.0341 75.9847 16.017C76.1722 16 76.3384 15.9162 76.4833 15.7656C76.631 15.6179 76.766 15.3778 76.8881 15.0455L77.0756 14.5341L74.6552 7.95455H75.7461L77.5529 13.1705H77.6211L79.4279 7.95455H80.5188L77.7404 15.4545C77.6154 15.7926 77.4606 16.0724 77.2759 16.294C77.0913 16.5185 76.8768 16.6847 76.6325 16.7926C76.391 16.9006 76.1183 16.9545 75.8143 16.9545ZM90.5735 7.95455L88.1531 14.5H87.1303L84.7099 7.95455H85.8008L87.6076 13.1705H87.6758L89.4826 7.95455H90.5735ZM91.9009 14.5V7.95455H92.9066V14.5H91.9009ZM92.4123 6.86364C92.2163 6.86364 92.0472 6.79688 91.9052 6.66335C91.766 6.52983 91.6964 6.36932 91.6964 6.18182C91.6964 5.99432 91.766 5.83381 91.9052 5.70028C92.0472 5.56676 92.2163 5.5 92.4123 5.5C92.6083 5.5 92.7759 5.56676 92.9151 5.70028C93.0572 5.83381 93.1282 5.99432 93.1282 6.18182C93.1282 6.36932 93.0572 6.52983 92.9151 6.66335C92.7759 6.79688 92.6083 6.86364 92.4123 6.86364ZM96.6747 14.6534C96.2599 14.6534 95.8835 14.5753 95.5455 14.419C95.2074 14.2599 94.9389 14.0312 94.7401 13.733C94.5412 13.4318 94.4418 13.0682 94.4418 12.642C94.4418 12.267 94.5156 11.9631 94.6634 11.7301C94.8111 11.4943 95.0085 11.3097 95.2557 11.1761C95.5028 11.0426 95.7756 10.9432 96.0739 10.8778C96.375 10.8097 96.6776 10.7557 96.9815 10.7159C97.3793 10.6648 97.7017 10.6264 97.9489 10.6009C98.1989 10.5724 98.3807 10.5256 98.4943 10.4602C98.6108 10.3949 98.669 10.2812 98.669 10.1193V10.0852C98.669 9.66477 98.554 9.33807 98.3239 9.10511C98.0966 8.87216 97.7514 8.75568 97.2884 8.75568C96.8082 8.75568 96.4318 8.8608 96.1591 9.07102C95.8864 9.28125 95.6946 9.50568 95.5838 9.74432L94.6293 9.40341C94.7997 9.00568 95.027 8.69602 95.3111 8.47443C95.598 8.25 95.9105 8.09375 96.2486 8.00568C96.5895 7.91477 96.9247 7.86932 97.2543 7.86932C97.4645 7.86932 97.706 7.89489 97.9787 7.94602C98.2543 7.99432 98.5199 8.09517 98.7756 8.24858C99.0341 8.40199 99.2486 8.63352 99.419 8.94318C99.5895 9.25284 99.6747 9.66761 99.6747 10.1875V14.5H98.669V13.6136H98.6179C98.5497 13.7557 98.4361 13.9077 98.277 14.0696C98.1179 14.2315 97.9063 14.3693 97.642 14.483C97.3778 14.5966 97.0554 14.6534 96.6747 14.6534ZM96.8281 13.75C97.2259 13.75 97.5611 13.6719 97.8338 13.5156C98.1094 13.3594 98.3168 13.1577 98.456 12.9105C98.598 12.6634 98.669 12.4034 98.669 12.1307V11.2102C98.6264 11.2614 98.5327 11.3082 98.3878 11.3509C98.2457 11.3906 98.081 11.4261 97.8935 11.4574C97.7088 11.4858 97.5284 11.5114 97.3523 11.5341C97.179 11.554 97.0384 11.571 96.9304 11.5852C96.669 11.6193 96.4247 11.6747 96.1974 11.7514C95.973 11.8253 95.7912 11.9375 95.652 12.0881C95.5156 12.2358 95.4474 12.4375 95.4474 12.6932C95.4474 13.0426 95.5767 13.3068 95.8352 13.4858C96.0966 13.6619 96.4276 13.75 96.8281 13.75Z" fill="#D1D5DB"/>
<path fill-rule="evenodd" clip-rule="evenodd" d="M152.588 16.3947C152.02 16.3947 151.499 16.2712 151.026 16.0243C150.759 15.8818 150.527 15.7125 150.33 15.5163C150.205 15.3924 149.953 15.4765 149.953 15.654V15.919C149.953 16.0394 149.857 16.137 149.739 16.137H148.715C148.597 16.137 148.501 16.0394 148.501 15.919V4.82323C148.501 4.70283 148.597 4.60522 148.715 4.60522H149.734C149.852 4.60522 149.948 4.70283 149.948 4.82323V8.72853C149.948 8.90605 150.201 8.99065 150.326 8.86708C150.524 8.67059 150.758 8.50099 151.026 8.35827C151.499 8.11133 152.02 7.98786 152.588 7.98786C153.609 7.98786 154.471 8.39585 155.176 9.21184C155.902 10.0386 156.265 11.0317 156.265 12.1913C156.265 13.3616 155.902 14.3547 155.176 15.1707C154.471 15.9867 153.609 16.3947 152.588 16.3947ZM152.351 15.0419C153.046 15.0419 153.63 14.7735 154.103 14.2366C154.576 13.7105 154.813 13.0287 154.813 12.1913C154.813 11.3646 154.576 10.6828 154.103 10.1459C153.63 9.6091 153.046 9.34068 152.351 9.34068C151.647 9.34068 151.057 9.6091 150.584 10.1459C150.121 10.6828 149.89 11.3646 149.89 12.1913C149.89 13.0287 150.121 13.7159 150.584 14.2527C151.057 14.7788 151.647 15.0419 152.351 15.0419ZM143.513 16.3947C142.376 16.3947 141.44 15.9974 140.704 15.2029C139.967 14.4084 139.599 13.4045 139.599 12.1913C139.599 10.9888 139.957 9.99025 140.672 9.19573C141.388 8.39048 142.303 7.98785 143.418 7.98785C144.565 7.98785 145.475 8.36901 146.148 9.13131C146.873 9.9288 147.22 11.1282 147.175 12.2192C147.169 12.359 147.053 12.4651 146.916 12.4651H141.343C141.2 12.4651 141.085 12.5857 141.099 12.7307C141.166 13.382 141.413 13.9162 141.84 14.3332C142.324 14.8057 142.902 15.0419 143.576 15.0419C144.435 15.0419 145.122 14.6352 145.636 13.8218C145.705 13.713 145.842 13.6688 145.956 13.7256L146.824 14.1574C146.946 14.2183 146.995 14.371 146.924 14.4895C146.589 15.0507 146.146 15.4978 145.596 15.831C144.985 16.2068 144.291 16.3947 143.513 16.3947ZM141.277 10.9301C141.226 11.0872 141.347 11.2411 141.509 11.2411H145.353C145.501 11.2411 145.619 11.1118 145.589 10.964C145.503 10.5395 145.295 10.1809 144.964 9.88825C144.575 9.5232 144.049 9.34068 143.386 9.34068C142.839 9.34068 142.366 9.51247 141.966 9.85604C141.649 10.1358 141.42 10.4938 141.277 10.9301ZM139.154 8.54825C139.201 8.39869 139.092 8.24554 138.938 8.24554H137.936C137.836 8.24554 137.747 8.31318 137.718 8.41171L136.241 13.5314C136.181 13.7368 135.898 13.741 135.833 13.5376L134.188 8.40517C134.158 8.30995 134.071 8.24554 133.973 8.24554H132.802C132.704 8.24554 132.617 8.30968 132.587 8.40463L130.927 13.541C130.862 13.744 130.579 13.7394 130.519 13.5343L129.041 8.41171C129.012 8.31318 128.924 8.24554 128.823 8.24554H127.79C127.636 8.24554 127.526 8.39869 127.574 8.54825L129.92 15.9765C129.951 16.0722 130.038 16.137 130.136 16.137H131.273C131.372 16.137 131.459 16.0721 131.489 15.9763L133.146 10.7237C133.209 10.5224 133.488 10.522 133.552 10.7232L135.222 15.9769C135.253 16.0724 135.34 16.137 135.438 16.137H136.591C136.69 16.137 136.777 16.0722 136.807 15.9765L139.154 8.54825ZM184.133 15.67C184.554 16.0672 185.08 16.2659 185.711 16.2659C186.129 16.2659 186.503 16.2181 186.835 16.1226C186.948 16.09 187.005 15.9653 186.966 15.8523L186.656 14.9582C186.615 14.8383 186.482 14.7804 186.363 14.8188C186.331 14.8292 186.298 14.8391 186.263 14.8486C186.158 14.8701 186.048 14.8808 185.932 14.8808C185.68 14.8808 185.453 14.7896 185.254 14.607C185.054 14.4138 184.954 14.0541 184.954 13.528V9.81637C184.954 9.69597 185.049 9.59836 185.167 9.59836H186.634C186.752 9.59836 186.847 9.50076 186.847 9.38036V8.46354C186.847 8.34314 186.752 8.24554 186.634 8.24554H185.167C185.049 8.24554 184.954 8.14794 184.954 8.02754V4.82323C184.954 4.70283 184.858 4.60522 184.74 4.60522H183.716C183.598 4.60522 183.502 4.70283 183.502 4.82323V8.02754C183.502 8.14794 183.406 8.24554 183.288 8.24554H182.359C182.241 8.24554 182.145 8.34314 182.145 8.46354V9.38036C182.145 9.50076 182.241 9.59836 182.359 9.59836H183.288C183.406 9.59836 183.502 9.69597 183.502 9.81637V14.0112C183.513 14.7198 183.723 15.2727 184.133 15.67ZM163.4 15.4284C164.105 14.7842 164.457 13.9789 164.457 13.0126C164.457 12.4221 164.294 11.8907 163.968 11.4182C163.818 11.1936 163.603 10.9081 162.97 10.5463C162.837 10.4698 162.833 10.2661 162.959 10.1778C163.716 9.64853 164.094 8.84718 164.094 7.90733C164.094 7.01619 163.774 6.29146 163.132 5.73315C162.48 5.15337 161.675 4.86348 160.718 4.86348C159.95 4.86348 159.282 5.07284 158.713 5.49158C158.207 5.86469 157.831 6.34011 157.583 6.91782C157.532 7.03753 157.591 7.17427 157.709 7.22522L158.606 7.61297C158.733 7.66788 158.878 7.60188 158.935 7.47365C159.288 6.67837 159.883 6.28072 160.718 6.28072C161.286 6.28072 161.743 6.43104 162.09 6.73166C162.438 7.03229 162.611 7.42418 162.611 7.90733C162.611 8.43343 162.427 8.8629 162.059 9.19574C161.691 9.51784 161.217 9.67889 160.639 9.67889H160.058C159.926 9.67889 159.818 9.78869 159.818 9.92414V10.8187C159.818 10.9541 159.926 11.0639 160.058 11.0639H160.749C161.359 11.0639 161.88 11.2518 162.311 11.6276C162.753 12.0034 162.974 12.4651 162.974 13.0126C162.974 13.5602 162.764 14.0273 162.343 14.4138C161.912 14.7896 161.401 14.9775 160.812 14.9775C160.276 14.9775 159.813 14.8164 159.424 14.4943C159.101 14.211 158.855 13.8266 158.685 13.341C158.637 13.2024 158.486 13.1269 158.353 13.1836L157.475 13.5568C157.362 13.6047 157.302 13.7313 157.341 13.849C157.587 14.5809 158.013 15.1825 158.619 15.6539C159.271 16.1478 160.002 16.3947 160.812 16.3947C161.843 16.3947 162.706 16.0726 163.4 15.4284ZM167.033 13.7213C167.033 13.2918 167.228 12.9321 167.617 12.6422C168.017 12.3523 168.511 12.2074 169.101 12.2074C169.856 12.2074 170.456 12.3663 170.901 12.6841C170.961 12.7271 170.995 12.7988 170.991 12.8737C170.962 13.4468 170.721 13.9495 170.268 14.3816C169.795 14.8432 169.253 15.0741 168.643 15.0741C168.212 15.0741 167.833 14.9452 167.507 14.6876C167.191 14.4299 167.033 14.1078 167.033 13.7213ZM171.452 8.87364C170.831 8.28312 169.984 7.98786 168.911 7.98786C167.618 7.98786 166.621 8.442 165.92 9.35028C165.845 9.44809 165.873 9.58943 165.976 9.65574L166.892 10.2441C166.989 10.3063 167.116 10.2789 167.187 10.1878C167.647 9.60158 168.248 9.30847 168.99 9.30847C169.527 9.30847 169.995 9.491 170.395 9.85604C170.797 10.2126 170.939 10.6412 170.98 11.1252C170.994 11.2916 170.816 11.3992 170.665 11.3349C170.166 11.122 169.565 11.0156 168.864 11.0156C167.854 11.0156 167.044 11.2572 166.434 11.7403C165.834 12.2235 165.534 12.8731 165.534 13.689C165.534 14.4621 165.818 15.1063 166.386 15.6217C166.965 16.137 167.68 16.3947 168.533 16.3947C169.532 16.3947 170.331 15.9438 170.931 15.0419V15.919C170.931 16.0394 171.027 16.137 171.145 16.137H172.169C172.287 16.137 172.383 16.0394 172.383 15.919V11.2733C172.383 10.2533 172.072 9.45342 171.452 8.87364ZM180.806 15.9054C180.806 16.0333 180.704 16.137 180.579 16.137H179.581C179.455 16.137 179.354 16.0333 179.354 15.9054V15.6467C179.354 15.4798 179.106 15.3997 178.99 15.5168C178.807 15.7007 178.586 15.8644 178.328 16.0082C177.876 16.2659 177.402 16.3947 176.908 16.3947C175.961 16.3947 175.23 16.1209 174.715 15.5733C174.21 15.015 173.957 14.2259 173.957 13.2059V8.47717C173.957 8.34924 174.059 8.24554 174.184 8.24554H175.182C175.307 8.24554 175.409 8.34924 175.409 8.47717V13.1093C175.44 14.3977 176.077 15.0419 177.318 15.0419C177.897 15.0419 178.381 14.8057 178.77 14.3333C179.159 13.8501 179.354 13.2757 179.354 12.61V8.47717C179.354 8.34924 179.455 8.24554 179.581 8.24554H180.579C180.704 8.24554 180.806 8.34924 180.806 8.47717V15.9054ZM188.305 4.82323C188.305 4.70283 188.401 4.60522 188.519 4.60522H189.544C189.661 4.60522 189.757 4.70283 189.757 4.82323V8.7359C189.757 8.90279 190.004 8.98215 190.119 8.8643C190.299 8.68105 190.515 8.51774 190.767 8.37438C191.23 8.1167 191.709 7.98786 192.203 7.98786C193.15 7.98786 193.876 8.26701 194.381 8.82532C194.896 9.37289 195.154 10.1567 195.154 11.1767V15.919C195.154 16.0394 195.058 16.137 194.94 16.137H193.916C193.798 16.137 193.702 16.0394 193.702 15.919V11.4666C193.702 10.0493 193.087 9.34068 191.856 9.34068C191.267 9.34068 190.767 9.593 190.357 10.0976C189.957 10.5915 189.757 11.1713 189.757 11.837V15.919C189.757 16.0394 189.661 16.137 189.544 16.137H188.519C188.401 16.137 188.305 16.0394 188.305 15.919V4.82323Z" fill="#D1D5DB"/>
<path d="M121.868 14.8861C121.952 15.2134 122.4 15.2134 122.484 14.8861L124.917 5.46499C125.029 5.03121 124.714 4.60522 124.281 4.60522H122.781C122.483 4.60522 122.222 4.81285 122.145 5.11145L120.774 10.4242C120.755 10.4979 120.755 10.5754 120.774 10.6491L121.868 14.8861Z" fill="#D1D5DB"/>
<path d="M113.366 10.4173C113.385 10.491 113.385 10.5686 113.366 10.6423L112.272 14.8792C112.187 15.2065 111.74 15.2065 111.655 14.8792L109.225 5.46499C109.113 5.03121 109.428 4.60522 109.86 4.60522H111.36C111.658 4.60522 111.919 4.81285 111.996 5.11145L113.366 10.4173Z" fill="#D1D5DB"/>
<path d="M115.417 16.957C115.342 17.2462 115.09 17.4473 114.803 17.4473H113.268C112.85 17.4473 112.546 17.0347 112.654 16.6145L115.607 5.14154C115.689 4.8252 115.964 4.60522 116.279 4.60522H118.064C118.379 4.60522 118.654 4.8252 118.736 5.14154L121.689 16.6145C121.797 17.0347 121.493 17.4473 121.075 17.4473H119.54C119.253 17.4473 119.001 17.2462 118.926 16.957L117.469 11.2954C117.387 10.9787 116.956 10.9787 116.874 11.2954L115.417 16.957Z" fill="#D1D5DB"/>
<path d="M116.633 15.7631C116.523 15.7631 116.443 15.6603 116.471 15.5556L117.01 13.5696C117.054 13.4066 117.289 13.4066 117.333 13.5696L117.872 15.5556C117.9 15.6603 117.82 15.7631 117.711 15.7631H116.633Z" fill="#D1D5DB"/>
</svg>
